<svg width="30" height="29" viewBox="0 0 30 29" fill="none" xmlns="http://www.w3.org/2000/svg">
<path d="M24.0527 7.25H11.4785C9.69546 7.25 8.25 8.69546 8.25 10.4785V23.0527C8.25 24.8358 9.69546 26.2812 11.4785 26.2812H24.0527C25.8358 26.2812 27.2812 24.8358 27.2812 23.0527V10.4785C27.2812 8.69546 25.8358 7.25 24.0527 7.25Z" stroke="#6D6D6D" stroke-width="3" stroke-linejoin="round"/>
<path d="M17.7656 12.2344V21.2969M22.2969 16.7656H13.2344M8.25 11V21.75H6.89062C6.05013 21.7476 5.24474 21.4127 4.65041 20.8183C4.05609 20.224 3.72114 19.4186 3.71875 18.5781V6.34375C3.72159 5.38321 4.10442 4.46283 4.78362 3.78362C5.46283 3.10442 6.38321 2.72159 7.34375 2.71875H19.5781C20.4186 2.72114 21.224 3.05609 21.8183 3.65041C22.4127 4.24474 22.7476 5.05013 22.75 5.89062L22.7217 7.25H12" stroke="#6D6D6D" stroke-width="3" stroke-linecap="round" stroke-linejoin="round"/>
</svg>
