<svg width="30" height="29" viewBox="0 0 30 29" fill="none" xmlns="http://www.w3.org/2000/svg">
<path d="M3.71875 19.0312V24.4688C3.72084 25.1892 4.00795 25.8795 4.51736 26.3889C5.02678 26.8983 5.71709 27.1854 6.4375 27.1875H24.5625C25.2829 27.1854 25.9732 26.8983 26.4826 26.3889C26.992 25.8795 27.2792 25.1892 27.2812 24.4688V19.0312" stroke="#6D6D6D" stroke-width="3" stroke-linejoin="round"/>
<path d="M11.875 19.0312C11.875 19.9927 12.2569 20.9147 12.9367 21.5945C13.6166 22.2743 14.5386 22.6562 15.5 22.6562C16.4614 22.6562 17.3834 22.2743 18.0633 21.5945C18.7431 20.9147 19.125 19.9927 19.125 19.0312M3.71875 19.0312H11.875H3.71875ZM19.125 19.0312H27.2812H19.125Z" stroke="#6D6D6D" stroke-width="3" stroke-linecap="round" stroke-linejoin="round"/>
<path d="M22.75 1.8125H8.25C6.77734 1.8125 5.81445 2.60547 5.53125 4.07812L3.71875 10.875V16.3125C3.72084 17.0329 4.00795 17.7232 4.51736 18.2326C5.02678 18.742 5.71709 19.0292 6.4375 19.0312H24.5625C25.2829 19.0292 25.9732 18.742 26.4826 18.2326C26.992 17.7232 27.2792 17.0329 27.2812 16.3125V10.875L25.4688 4.07812C25.1855 2.54883 24.166 1.8125 22.75 1.8125Z" stroke="#6D6D6D" stroke-width="3" stroke-linejoin="round"/>
<path d="M11.875 10.875C11.875 11.8364 12.2569 12.7584 12.9367 13.4383C13.6166 14.1181 14.5386 14.5 15.5 14.5C16.4614 14.5 17.3834 14.1181 18.0633 13.4383C18.7431 12.7584 19.125 11.8364 19.125 10.875M3.71875 10.875H11.875H3.71875ZM19.125 10.875H27.2812H19.125Z" stroke="#6D6D6D" stroke-width="3" stroke-linecap="round" stroke-linejoin="round"/>
</svg>
