<svg width="29" height="29" viewBox="0 0 29 29" fill="none" xmlns="http://www.w3.org/2000/svg">
<path d="M11.5547 2.71875H3.85156C3.22593 2.71875 2.71875 3.22593 2.71875 3.85156V11.5547C2.71875 12.1803 3.22593 12.6875 3.85156 12.6875H11.5547C12.1803 12.6875 12.6875 12.1803 12.6875 11.5547V3.85156C12.6875 3.22593 12.1803 2.71875 11.5547 2.71875Z" stroke="#6D6D6D" stroke-width="3" stroke-linecap="round" stroke-linejoin="round"/>
<path d="M25.1484 2.71875H17.4453C16.8197 2.71875 16.3125 3.22593 16.3125 3.85156V11.5547C16.3125 12.1803 16.8197 12.6875 17.4453 12.6875H25.1484C25.7741 12.6875 26.2812 12.1803 26.2812 11.5547V3.85156C26.2812 3.22593 25.7741 2.71875 25.1484 2.71875Z" stroke="#6D6D6D" stroke-width="3" stroke-linecap="round" stroke-linejoin="round"/>
<path d="M11.5547 16.3125H3.85156C3.22593 16.3125 2.71875 16.8197 2.71875 17.4453V25.1484C2.71875 25.7741 3.22593 26.2812 3.85156 26.2812H11.5547C12.1803 26.2812 12.6875 25.7741 12.6875 25.1484V17.4453C12.6875 16.8197 12.1803 16.3125 11.5547 16.3125Z" stroke="#6D6D6D" stroke-width="3" stroke-linecap="round" stroke-linejoin="round"/>
<path d="M25.1484 16.3125H17.4453C16.8197 16.3125 16.3125 16.8197 16.3125 17.4453V25.1484C16.3125 25.7741 16.8197 26.2812 17.4453 26.2812H25.1484C25.7741 26.2812 26.2812 25.7741 26.2812 25.1484V17.4453C26.2812 16.8197 25.7741 16.3125 25.1484 16.3125Z" stroke="#6D6D6D" stroke-width="3" stroke-linecap="round" stroke-linejoin="round"/>
</svg>
