<svg width="30" height="29" viewBox="0 0 30 29" fill="none" xmlns="http://www.w3.org/2000/svg">
<g clip-path="url(#clip0)">
<mask id="path-1-inside-1" fill="white">
<rect x="2" y="1" width="27" height="13" rx="2"/>
</mask>
<rect x="2" y="1" width="27" height="13" rx="2" stroke="#6D6D6D" stroke-width="6" mask="url(#path-1-inside-1)"/>
<line x1="6.5" y1="7.5" x2="17.5" y2="7.5" stroke="#6D6D6D" stroke-linecap="round"/>
<circle cx="22.5" cy="7.5" r="1.5" fill="#6D6D6D"/>
<mask id="path-4-inside-2" fill="white">
<rect x="2" y="15" width="27" height="13" rx="2"/>
</mask>
<rect x="2" y="15" width="27" height="13" rx="2" stroke="#6D6D6D" stroke-width="6" mask="url(#path-4-inside-2)"/>
<line x1="6.5" y1="21.5" x2="17.5" y2="21.5" stroke="#6D6D6D" stroke-linecap="round"/>
<circle cx="22.5" cy="21.5" r="1.5" fill="#6D6D6D"/>
<path d="M17.5766 17.6156C17.2266 17.9442 16.9569 18.3236 16.7757 18.7274C16.4997 19.3425 16.4314 20.0061 16.5688 20.6439C16.7067 21.2839 17.0532 21.9014 17.5995 22.4056C18.148 22.9119 18.8701 23.2765 19.6834 23.4258C20.4972 23.5752 21.3388 23.4971 22.0946 23.2081C22.8494 22.9196 23.463 22.4428 23.8794 21.8675C24.2937 21.2953 24.5 20.6456 24.5 20C24.5 18.6193 25.6193 17.5 27 17.5C28.3807 17.5 29.5 18.6193 29.5 20C29.5 21.7279 28.9438 23.3983 27.9297 24.7993C26.9176 26.1975 25.5008 27.2588 23.8803 27.8784C22.2606 28.4977 20.4884 28.6572 18.7804 28.3436C17.0721 28.0299 15.4778 27.2516 14.2081 26.0796C12.9364 24.9058 12.0447 23.3851 11.681 21.6972C11.3168 20.0072 11.506 18.258 12.2139 16.6804C12.9204 15.1059 14.1018 13.7929 15.5764 12.8834C16.2355 12.4768 16.9425 12.1573 17.678 11.9281C17.3187 11.0279 17.5034 9.96106 18.2322 9.23223C19.2086 8.25592 20.7915 8.25592 21.7678 9.23223L24.7678 12.2322C24.8907 12.3551 24.9987 12.4884 25.0913 12.6296C25.3419 12.9168 25.5776 13.3131 25.6781 13.8317C25.8976 14.9635 25.3154 15.7553 25.085 16.0203C24.8249 16.3193 24.5546 16.493 24.4432 16.5614C24.3715 16.6054 24.3081 16.64 24.2588 16.6655L24.2588 16.6655C24.2336 16.6785 24.2105 16.69 24.19 16.6999L24.1846 16.7025L24.1846 16.7025L24.1663 16.7112L24.1582 16.7151L24.1581 16.715L24.1499 16.7189L24.1463 16.7205L24.1463 16.7205L24.1424 16.7223L24.1402 16.7233L17.5766 17.6156ZM17.5766 17.6156C17.6834 18.0378 17.902 18.4375 18.2322 18.7678C19.2086 19.7441 20.7915 19.7441 21.7678 18.7678L23.6455 16.8901C23.8112 16.8529 23.9752 16.7984 24.1348 16.7258C24.1354 16.7255 24.136 16.7252 24.1366 16.725L17.5766 17.6156Z" fill="#6D6D6D" stroke="white" stroke-width="2" stroke-linecap="round" stroke-linejoin="round"/>
</g>
<defs>
<clipPath id="clip0">
<rect width="29" height="29" fill="white" transform="translate(0.880402)"/>
</clipPath>
</defs>
</svg>
