<svg width="30" height="29" viewBox="0 0 30 29" fill="none" xmlns="http://www.w3.org/2000/svg">
<g clip-path="url(#clip0)">
<mask id="path-1-inside-1" fill="white">
<rect x="2" y="1" width="27" height="13" rx="2"/>
</mask>
<rect x="2" y="1" width="27" height="13" rx="2" stroke="#6D6D6D" stroke-width="6" mask="url(#path-1-inside-1)"/>
<line x1="6.5" y1="7.5" x2="17.5" y2="7.5" stroke="#6D6D6D" stroke-linecap="round"/>
<circle cx="22.5" cy="7.5" r="1.5" fill="#6D6D6D"/>
<mask id="path-4-inside-2" fill="white">
<rect x="2" y="15" width="27" height="13" rx="2"/>
</mask>
<rect x="2" y="15" width="27" height="13" rx="2" stroke="#6D6D6D" stroke-width="6" mask="url(#path-4-inside-2)"/>
<line x1="6.5" y1="21.5" x2="17.5" y2="21.5" stroke="#6D6D6D" stroke-linecap="round"/>
<circle cx="22.5" cy="21.5" r="1.5" fill="#6D6D6D"/>
<path d="M19.7692 12.5H19.2692V13V18.2692H14H13.5V18.7692V22.2308V22.7308H14H19.2692V28V28.5H19.7692H23.2308H23.7308V28V22.7308H29H29.5V22.2308V18.7692V18.2692H29H23.7308V13V12.5H23.2308H19.7692Z" fill="#6D6D6D" stroke="white"/>
</g>
<defs>
<clipPath id="clip0">
<rect width="29" height="29" fill="white" transform="translate(0.880402)"/>
</clipPath>
</defs>
</svg>
