<svg width="29" height="29" viewBox="0 0 29 29" fill="none" xmlns="http://www.w3.org/2000/svg">
<path d="M22.8892 9.51562C22.7232 11.8192 21.0143 13.5938 19.1509 13.5938C17.2874 13.5938 15.5757 11.8198 15.4126 9.51562C15.2427 7.11916 16.9062 5.4375 19.1509 5.4375C21.3955 5.4375 23.0591 7.16277 22.8892 9.51562Z" stroke="#6D6D6D" stroke-width="3" stroke-linecap="round" stroke-linejoin="round"/>
<path d="M19.1508 17.2188C15.4596 17.2188 11.9099 19.0522 11.0206 22.6228C10.9028 23.0952 11.1991 23.5625 11.6845 23.5625H26.6178C27.1032 23.5625 27.3977 23.0952 27.2816 22.6228C26.3923 18.995 22.8427 17.2188 19.1508 17.2188Z" stroke="#6D6D6D" stroke-width="3" stroke-miterlimit="10"/>
<path d="M11.4477 10.5318C11.3152 12.3714 9.93427 13.8203 8.44576 13.8203C6.95724 13.8203 5.57408 12.372 5.44381 10.5318C5.30844 8.61787 6.65252 7.25 8.44576 7.25C10.239 7.25 11.5831 8.65299 11.4477 10.5318Z" stroke="#6D6D6D" stroke-width="3" stroke-linecap="round" stroke-linejoin="round"/>
<path d="M11.7876 17.332C10.7652 16.8636 9.63919 16.6835 8.44577 16.6835C5.50046 16.6835 2.66277 18.1476 1.95193 20.9995C1.85847 21.3767 2.09523 21.75 2.48265 21.75H8.84226" stroke="#6D6D6D" stroke-width="3" stroke-miterlimit="10" stroke-linecap="round"/>
</svg>
