<svg width="64" height="64" viewBox="0 0 64 64" fill="none" xmlns="http://www.w3.org/2000/svg">
<path d="M29.3333 39.9999H34.6666V45.3332H29.3333V39.9999ZM29.3333 18.6666H34.6666V34.6666H29.3333V18.6666ZM31.9732 5.33325C17.2533 5.33325 5.33325 17.2799 5.33325 31.9999C5.33325 46.7199 17.2533 58.6666 31.9732 58.6666C46.7199 58.6666 58.6666 46.7199 58.6666 31.9999C58.6666 17.2799 46.7199 5.33325 31.9732 5.33325ZM31.9999 53.3332C20.2133 53.3332 10.6666 43.7866 10.6666 31.9999C10.6666 20.2133 20.2133 10.6666 31.9999 10.6666C43.7866 10.6666 53.3332 20.2133 53.3332 31.9999C53.3332 43.7866 43.7866 53.3332 31.9999 53.3332Z" fill="#FF7676"/>
</svg>
