<svg width="64" height="64" viewBox="0 0 64 64" fill="none" xmlns="http://www.w3.org/2000/svg">
<path d="M29.3334 18.6666H34.6667V23.9999H29.3334V18.6666ZM29.3334 29.3333H34.6667V45.3333H29.3334V29.3333ZM32 5.33325C17.28 5.33325 5.33337 17.2799 5.33337 31.9999C5.33337 46.7199 17.28 58.6666 32 58.6666C46.72 58.6666 58.6667 46.7199 58.6667 31.9999C58.6667 17.2799 46.72 5.33325 32 5.33325ZM32 53.3333C20.24 53.3333 10.6667 43.7599 10.6667 31.9999C10.6667 20.2399 20.24 10.6666 32 10.6666C43.76 10.6666 53.3334 20.2399 53.3334 31.9999C53.3334 43.7599 43.76 53.3333 32 53.3333Z" fill="#567CC6"/>
</svg>
