<svg width="32" height="32" viewBox="0 0 32 32" fill="none" xmlns="http://www.w3.org/2000/svg">
<path d="M16 8C21.0534 8 25.56 10.84 27.76 15.3333C26.9734 16.96 25.8667 18.36 24.5467 19.4933L26.4267 21.3733C28.28 19.7333 29.7467 17.68 30.6667 15.3333C28.36 9.48 22.6667 5.33333 16 5.33333C14.3067 5.33333 12.68 5.6 11.1467 6.09333L13.3467 8.29333C14.2134 8.12 15.0934 8 16 8ZM14.5734 9.52L17.3334 12.28C18.0934 12.6133 18.7067 13.2267 19.04 13.9867L21.8 16.7467C21.9067 16.2933 21.9867 15.8133 21.9867 15.32C22 12.0133 19.3067 9.33333 16 9.33333C15.5067 9.33333 15.04 9.4 14.5734 9.52ZM2.68004 5.16L6.25337 8.73333C4.08004 10.44 2.36004 12.7067 1.33337 15.3333C3.64004 21.1867 9.33337 25.3333 16 25.3333C18.0267 25.3333 19.9734 24.9467 21.76 24.24L26.32 28.8L28.2 26.92L4.56004 3.26666L2.68004 5.16ZM12.68 15.16L16.16 18.64C16.1067 18.6533 16.0534 18.6667 16 18.6667C14.16 18.6667 12.6667 17.1733 12.6667 15.3333C12.6667 15.2667 12.68 15.2267 12.68 15.16V15.16ZM8.14671 10.6267L10.48 12.96C10.1734 13.6933 10 14.4933 10 15.3333C10 18.64 12.6934 21.3333 16 21.3333C16.84 21.3333 17.64 21.16 18.36 20.8533L19.6667 22.16C18.4934 22.48 17.2667 22.6667 16 22.6667C10.9467 22.6667 6.44004 19.8267 4.24004 15.3333C5.17337 13.4267 6.53337 11.8533 8.14671 10.6267Z" fill="black" fill-opacity="0.2"/>
</svg>
