<svg width="32" height="32" viewBox="0 0 32 32" fill="none" xmlns="http://www.w3.org/2000/svg">
<path d="M16 8C21.0534 8 25.56 10.84 27.76 15.3333C25.56 19.8267 21.0534 22.6667 16 22.6667C10.9467 22.6667 6.44004 19.8267 4.24004 15.3333C6.44004 10.84 10.9467 8 16 8ZM16 5.33334C9.33337 5.33334 3.64004 9.48 1.33337 15.3333C3.64004 21.1867 9.33337 25.3333 16 25.3333C22.6667 25.3333 28.36 21.1867 30.6667 15.3333C28.36 9.48 22.6667 5.33334 16 5.33334ZM16 12C17.84 12 19.3334 13.4933 19.3334 15.3333C19.3334 17.1733 17.84 18.6667 16 18.6667C14.16 18.6667 12.6667 17.1733 12.6667 15.3333C12.6667 13.4933 14.16 12 16 12ZM16 9.33334C12.6934 9.33334 10 12.0267 10 15.3333C10 18.64 12.6934 21.3333 16 21.3333C19.3067 21.3333 22 18.64 22 15.3333C22 12.0267 19.3067 9.33334 16 9.33334Z" fill="black" fill-opacity="0.2"/>
</svg>
