<svg width="64" height="65" viewBox="0 0 64 65" fill="none" xmlns="http://www.w3.org/2000/svg">
<path d="M31.9999 5.45166C17.2799 5.45166 5.33325 17.3983 5.33325 32.1183C5.33325 46.8383 17.2799 58.785 31.9999 58.785C46.7199 58.785 58.6666 46.8383 58.6666 32.1183C58.6666 17.3983 46.7199 5.45166 31.9999 5.45166ZM31.9999 53.4517C20.2399 53.4517 10.6666 43.8783 10.6666 32.1183C10.6666 20.3583 20.2399 10.785 31.9999 10.785C43.7599 10.785 53.3332 20.3583 53.3332 32.1183C53.3332 43.8783 43.7599 53.4517 31.9999 53.4517ZM44.2399 20.3317L26.6666 37.905L19.7599 31.025L15.9999 34.785L26.6666 45.4517L47.9999 24.1183L44.2399 20.3317Z" fill="#62C540"/>
</svg>
