<svg width="59" height="59" viewBox="0 0 59 59" fill="none" xmlns="http://www.w3.org/2000/svg">
<path d="M5.92613 15.1116V40.8194C5.92613 42.3348 6.78258 43.7202 8.13826 44.3976L29.4261 55.0342M5.92613 15.1116L27.5977 3.97385C28.7453 3.38407 30.1069 3.38407 31.2545 3.97385L52.9261 15.1116M5.92613 15.1116L29.4261 26.5181M29.4261 55.0342L50.714 44.3975C52.0697 43.7202 52.9261 42.3348 52.9261 40.8194V15.1116M29.4261 55.0342V26.5181M52.9261 15.1116L29.4261 26.5181" stroke="#254189" stroke-width="2" stroke-linecap="round" stroke-linejoin="round"/>
<path d="M5.42613 28.0342C-16.5739 47.0342 75.4262 47.0342 53.4261 28.0342" stroke="#254189" stroke-width="2.8" stroke-linecap="round" stroke-linejoin="round"/>
<path d="M40.4938 50.1418C68.7375 57.019 15.3128 -17.8796 12.62 11.0643" stroke="#254189" stroke-width="2.8" stroke-linecap="round" stroke-linejoin="round"/>
<path d="M18.2212 50.1418C-10.0225 57.019 43.4022 -17.8796 46.0949 11.0643" stroke="#254189" stroke-width="2.8" stroke-linecap="round" stroke-linejoin="round"/>
</svg>
